<?xml version="1.0" encoding="utf-8"?>
<!-- Generator: Adobe Illustrator 18.0.0, SVG Export Plug-In . SVG Version: 6.00 Build 0)  -->
<!DOCTYPE svg PUBLIC "-//W3C//DTD SVG 1.1//EN" "http://www.w3.org/Graphics/SVG/1.1/DTD/svg11.dtd">
<svg version="1.1" id="Arrow_1_" xmlns="http://www.w3.org/2000/svg" xmlns:xlink="http://www.w3.org/1999/xlink" x="0px" y="0px"
	 width="500px" height="500px" viewBox="0 0 500 500" enable-background="new 0 0 500 500" xml:space="preserve">
  <metadata>
    <?xpacket begin="﻿" id="W5M0MpCehiHzreSzNTczkc9d"?>
    <x:xmpmeta xmlns:x="adobe:ns:meta/" x:xmptk="Adobe XMP Core 5.6-c011 79.156380, 2014/06/19-23:40:37        ">
     <rdf:RDF xmlns:rdf="http://www.w3.org/1999/02/22-rdf-syntax-ns#">
      <rdf:Description rdf:about=""
        xmlns:xmpMM="http://ns.adobe.com/xap/1.0/mm/"
        xmlns:stEvt="http://ns.adobe.com/xap/1.0/sType/ResourceEvent#"
        xmlns:xmp="http://ns.adobe.com/xap/1.0/"
        xmlns:xmpRights="http://ns.adobe.com/xap/1.0/rights/"
        xmlns:dc="http://purl.org/dc/elements/1.1/"
       xmpMM:DocumentID="xmp.did:e4e6c2529b19ed6cde4f0fba489a2c6d"
       xmpMM:OriginalDocumentID="xmp.did:e4e6c2529b19ed6cde4f0fba489a2c6d"
       xmpMM:InstanceID="xmp.iid:e4e6c2529b19ed6cde4f0fba489a2c6d"
       xmp:ModifyDate="2015-04-10T15:07:20+02:00"
       xmp:MetadataDate="2015-04-10T15:07:20+02:00"
       xmpRights:Marked="True"
       xmpRights:WebStatement="http://www.adobe.com/legal/general-terms.html">
       <xmpMM:History>
        <rdf:Seq>
         <rdf:li
          stEvt:action="saved"
          stEvt:instanceID="xmp.iid:e4e6c2529b19ed6cde4f0fba489a2c6d"
          stEvt:when="2015-04-10T15:07:20+02:00"/>
        </rdf:Seq>
       </xmpMM:History>
       <xmpRights:UsageTerms>
        <rdf:Alt>
         <rdf:li xml:lang="x-default">This work is licensed under the Adobe General Terms of Use http://www.adobe.com/legal/general-terms.html.</rdf:li>
        </rdf:Alt>
       </xmpRights:UsageTerms>
       <dc:publisher>
        <rdf:Bag>
         <rdf:li>Adobe Systems Incorporated</rdf:li>
        </rdf:Bag>
       </dc:publisher>
      </rdf:Description>
     </rdf:RDF>
    </x:xmpmeta>
    <?xpacket end="r"?>
  </metadata>
<g id="_x38_10-document-2_x40_2x.png">
	<g>
		<path d="M133.9,178.6h89.3c4.9,0,8.9-4,8.9-8.9c0-4.9-4-8.9-8.9-8.9h-89.3c-4.9,0-8.9,4-8.9,8.9C125,174.6,129,178.6,133.9,178.6z
			 M133.9,232.1h232.1c4.9,0,8.9-4,8.9-8.9c0-4.9-4-8.9-8.9-8.9H133.9c-4.9,0-8.9,4-8.9,8.9C125,228.2,129,232.1,133.9,232.1z
			 M276.8,178.6h89.3c4.9,0,8.9-4,8.9-8.9V62.5c0-4.9-4-8.9-8.9-8.9h-89.3c-4.9,0-8.9,4-8.9,8.9v107.1
			C267.9,174.6,271.8,178.6,276.8,178.6z M285.7,71.4h71.4v89.3h-71.4V71.4z M133.9,71.4h89.3c4.9,0,8.9-4,8.9-8.9
			c0-4.9-4-8.9-8.9-8.9h-89.3c-4.9,0-8.9,4-8.9,8.9C125,67.4,129,71.4,133.9,71.4z M133.9,125h89.3c4.9,0,8.9-4,8.9-8.9
			c0-4.9-4-8.9-8.9-8.9h-89.3c-4.9,0-8.9,4-8.9,8.9C125,121,129,125,133.9,125z M410.7,0H89.3c-9.9,0-17.9,8-17.9,17.9v464.3
			c0,9.9,8,17.9,17.9,17.9h321.4c9.9,0,17.9-8,17.9-17.9V17.9C428.6,8,420.6,0,410.7,0z M410.7,482.1H89.3V17.9h321.4V482.1z
			 M133.9,446.4h178.6c4.9,0,8.9-4,8.9-8.9c0-4.9-4-8.9-8.9-8.9H133.9c-4.9,0-8.9,4-8.9,8.9C125,442.4,129,446.4,133.9,446.4z
			 M133.9,285.7h232.1c4.9,0,8.9-4,8.9-8.9s-4-8.9-8.9-8.9H133.9c-4.9,0-8.9,4-8.9,8.9S129,285.7,133.9,285.7z M133.9,339.3h232.1
			c4.9,0,8.9-4,8.9-8.9c0-4.9-4-8.9-8.9-8.9H133.9c-4.9,0-8.9,4-8.9,8.9C125,335.3,129,339.3,133.9,339.3z M133.9,392.9h232.1
			c4.9,0,8.9-4,8.9-8.9c0-4.9-4-8.9-8.9-8.9H133.9c-4.9,0-8.9,4-8.9,8.9C125,388.9,129,392.9,133.9,392.9z"/>
	</g>
</g>
</svg>
