<?xml version="1.0" encoding="utf-8"?>
<!-- Generator: Adobe Illustrator 18.0.0, SVG Export Plug-In . SVG Version: 6.00 Build 0)  -->
<!DOCTYPE svg PUBLIC "-//W3C//DTD SVG 1.1//EN" "http://www.w3.org/Graphics/SVG/1.1/DTD/svg11.dtd">
<svg version="1.1" id="Arrow_1_" xmlns="http://www.w3.org/2000/svg" xmlns:xlink="http://www.w3.org/1999/xlink" x="0px" y="0px"
	 width="500px" height="500px" viewBox="0 0 500 500" enable-background="new 0 0 500 500" xml:space="preserve">
  <metadata>
    <?xpacket begin="﻿" id="W5M0MpCehiHzreSzNTczkc9d"?>
    <x:xmpmeta xmlns:x="adobe:ns:meta/" x:xmptk="Adobe XMP Core 5.6-c011 79.156380, 2014/06/19-23:40:37        ">
     <rdf:RDF xmlns:rdf="http://www.w3.org/1999/02/22-rdf-syntax-ns#">
      <rdf:Description rdf:about=""
        xmlns:xmpMM="http://ns.adobe.com/xap/1.0/mm/"
        xmlns:stEvt="http://ns.adobe.com/xap/1.0/sType/ResourceEvent#"
        xmlns:xmp="http://ns.adobe.com/xap/1.0/"
        xmlns:xmpRights="http://ns.adobe.com/xap/1.0/rights/"
        xmlns:dc="http://purl.org/dc/elements/1.1/"
       xmpMM:DocumentID="xmp.did:3f48c75ec3ef3de5da2c7a38faaf49e9"
       xmpMM:OriginalDocumentID="xmp.did:3f48c75ec3ef3de5da2c7a38faaf49e9"
       xmpMM:InstanceID="xmp.iid:3f48c75ec3ef3de5da2c7a38faaf49e9"
       xmp:ModifyDate="2015-04-23T14:55:12+02:00"
       xmp:MetadataDate="2015-04-23T14:55:12+02:00"
       xmpRights:Marked="True"
       xmpRights:WebStatement="http://www.adobe.com/legal/general-terms.html">
       <xmpMM:History>
        <rdf:Seq>
         <rdf:li
          stEvt:action="saved"
          stEvt:instanceID="xmp.iid:3f48c75ec3ef3de5da2c7a38faaf49e9"
          stEvt:when="2015-04-23T14:55:12+02:00"/>
        </rdf:Seq>
       </xmpMM:History>
       <xmpRights:UsageTerms>
        <rdf:Alt>
         <rdf:li xml:lang="x-default">This work is licensed under the Adobe General Terms of Use http://www.adobe.com/legal/general-terms.html.</rdf:li>
        </rdf:Alt>
       </xmpRights:UsageTerms>
       <dc:publisher>
        <rdf:Bag>
         <rdf:li>Adobe Systems Incorporated</rdf:li>
        </rdf:Bag>
       </dc:publisher>
      </rdf:Description>
     </rdf:RDF>
    </x:xmpmeta>
    <?xpacket end="r"?>
  </metadata>
<g>
	<g id="Base_icon_copy_12_3_">
		<path fill="#3F91CB" d="M487.5,0h-475C5.6,0,0,5.6,0,12.5v475c0,6.9,5.6,12.5,12.5,12.5h475c6.9,0,12.5-5.6,12.5-12.5v-475
			C500,5.6,494.4,0,487.5,0z"/>
	</g>
	<g id="GitHub_icon">
		<path fill="#FFFFFF" d="M250,102.5c-81.4,0-147.4,66-147.4,147.4c0,69.3,47.8,127.4,112.2,143.2c0-18.2-0.1-52.9-0.1-54.2
			c-0.3-0.2-28,16-42.1-12.3c-1.7-3.5-5.1-15.2-13.7-21.8c-0.3-0.3-6.6-3.5-7.2-6.7c-0.1-0.4,0.4-1.4,1-1.6
			c0.7-0.2,11.1-4.5,22.7,10.2c3.5,4.9,11.4,23.9,39.1,12.2c0.7-2.9,1.3-7.7,7.3-13.1c-41.3-4.9-56.3-19.1-62.2-54.3
			c-3.7-24.1,3.4-44,13.9-53.9c-1.6-2.1-6.9-19.7,1.3-38.3c8.9-1.8,25.1,4.6,39.4,14.9c20.2-7.3,58-5.4,71.5,0
			c6.4-5.3,29.4-17.8,39.3-14.9c2.9,7.4,7.1,25.3,1.3,38.3c12.8,13.2,16.5,30.3,14.1,51.3c-2.8,31.8-18.9,53.2-62.6,56.9
			c7.3,5.1,14,12.2,14,24.2c0,12.9,0,43.6,0,61.3c61-18,105.6-74.5,105.6-141.4C397.4,168.5,331.4,102.5,250,102.5z"/>
	</g>
</g>
</svg>
