<?xml version="1.0" encoding="utf-8"?>
<!-- Generator: Adobe Illustrator 18.0.0, SVG Export Plug-In . SVG Version: 6.00 Build 0)  -->
<!DOCTYPE svg PUBLIC "-//W3C//DTD SVG 1.1//EN" "http://www.w3.org/Graphics/SVG/1.1/DTD/svg11.dtd">
<svg version="1.1" id="Arrow_1_" xmlns="http://www.w3.org/2000/svg" xmlns:xlink="http://www.w3.org/1999/xlink" x="0px" y="0px"
	 width="500px" height="500px" viewBox="0 0 500 500" enable-background="new 0 0 500 500" xml:space="preserve">
  <metadata>
    <?xpacket begin="﻿" id="W5M0MpCehiHzreSzNTczkc9d"?>
    <x:xmpmeta xmlns:x="adobe:ns:meta/" x:xmptk="Adobe XMP Core 5.6-c011 79.156380, 2014/06/19-23:40:37        ">
     <rdf:RDF xmlns:rdf="http://www.w3.org/1999/02/22-rdf-syntax-ns#">
      <rdf:Description rdf:about=""
        xmlns:xmpMM="http://ns.adobe.com/xap/1.0/mm/"
        xmlns:stEvt="http://ns.adobe.com/xap/1.0/sType/ResourceEvent#"
        xmlns:xmp="http://ns.adobe.com/xap/1.0/"
        xmlns:xmpRights="http://ns.adobe.com/xap/1.0/rights/"
        xmlns:dc="http://purl.org/dc/elements/1.1/"
       xmpMM:DocumentID="xmp.did:f717844a7a818e951ef86d81d77dcedf"
       xmpMM:OriginalDocumentID="xmp.did:f717844a7a818e951ef86d81d77dcedf"
       xmpMM:InstanceID="xmp.iid:f717844a7a818e951ef86d81d77dcedf"
       xmp:ModifyDate="2015-04-21T17:10:32+02:00"
       xmp:MetadataDate="2015-04-21T17:10:32+02:00"
       xmpRights:Marked="True"
       xmpRights:WebStatement="http://www.adobe.com/legal/general-terms.html">
       <xmpMM:History>
        <rdf:Seq>
         <rdf:li
          stEvt:action="saved"
          stEvt:instanceID="xmp.iid:f717844a7a818e951ef86d81d77dcedf"
          stEvt:when="2015-04-21T17:10:32+02:00"/>
        </rdf:Seq>
       </xmpMM:History>
       <xmpRights:UsageTerms>
        <rdf:Alt>
         <rdf:li xml:lang="x-default">This work is licensed under the Adobe General Terms of Use http://www.adobe.com/legal/general-terms.html.</rdf:li>
        </rdf:Alt>
       </xmpRights:UsageTerms>
       <dc:publisher>
        <rdf:Bag>
         <rdf:li>Adobe Systems Incorporated</rdf:li>
        </rdf:Bag>
       </dc:publisher>
      </rdf:Description>
     </rdf:RDF>
    </x:xmpmeta>
    <?xpacket end="r"?>
  </metadata>
<g>
	<g id="Base_icon_copy_10_5_">
		<path fill="#0481D9" d="M487.5,0h-475C5.6,0,0,5.6,0,12.5v475c0,6.9,5.6,12.5,12.5,12.5h475c6.9,0,12.5-5.6,12.5-12.5v-475
			C500,5.6,494.4,0,487.5,0z"/>
	</g>
	<g id="Shape_7_copy">
		<path fill="#FFFFFF" d="M150.9,353.3h45.3V194.7h-45.3V353.3z M323.9,203.7c-16.9-9.5-41.8-10.3-59.7-2.1v-7h-45.3v158.6h45.3
			V251.9l18.7-9c4.6-2.2,14.6-2,18.9,0.4c3.2,1.8,7.8,9.2,7.8,13.8v96.3h45.3V257C354.8,236.2,341.8,213.8,323.9,203.7z M173.5,121
			c-15.7,0-28.3,12.7-28.3,28.3c0,15.6,12.7,28.3,28.3,28.3c15.7,0,28.3-12.7,28.3-28.3C201.8,133.7,189.2,121,173.5,121z"/>
	</g>
</g>
</svg>
