<svg xmlns="http://www.w3.org/2000/svg" xmlns:xlink="http://www.w3.org/1999/xlink" preserveAspectRatio="xMidYMid" width="500" height="500" viewBox="0 0 50 50">
  <defs>
    <style>
      .cls-1 {
        fill: #35b5eb;
      }

      .cls-2 {
        fill: #fff;
        fill-rule: evenodd;
      }
    </style>
  </defs>
  <g>
    <rect width="50" height="50" class="cls-1"/>
    <path d="M38.619,16.669 C37.623,17.112 36.553,17.409 35.429,17.545 C36.576,16.858 37.456,15.767 37.871,14.472 C36.799,15.108 35.610,15.569 34.346,15.820 C33.332,14.740 31.889,14.066 30.293,14.066 C27.226,14.066 24.740,16.552 24.740,19.619 C24.740,20.052 24.789,20.479 24.884,20.885 C20.269,20.652 16.177,18.442 13.438,15.084 C12.961,15.903 12.687,16.856 12.687,17.873 C12.687,19.801 13.667,21.499 15.157,22.496 C14.247,22.467 13.391,22.216 12.642,21.800 C12.641,21.823 12.641,21.846 12.641,21.871 C12.641,24.562 14.556,26.806 17.096,27.316 C16.630,27.443 16.139,27.509 15.633,27.509 C15.275,27.509 14.927,27.476 14.588,27.410 C15.294,29.617 17.345,31.223 19.775,31.266 C17.875,32.756 15.480,33.644 12.879,33.644 C12.431,33.644 11.989,33.618 11.555,33.565 C14.012,35.141 16.931,36.061 20.066,36.061 C30.280,36.061 35.864,27.600 35.864,20.262 C35.864,20.023 35.859,19.781 35.849,19.544 C36.934,18.760 37.874,17.783 38.619,16.669 Z" class="cls-2"/>
  </g>
</svg>
